<svg width="455" height="464" viewBox="0 0 455 464" fill="none" xmlns="http://www.w3.org/2000/svg">
<path d="M349.252 164.111C349.252 221.795 302.491 268.556 244.807 268.556C187.124 268.556 140.363 221.795 140.363 164.111C140.363 106.428 187.124 59.6667 244.807 59.6667C302.491 59.6667 349.252 106.428 349.252 164.111Z" fill="#F4F4F4"/>
<path d="M389.252 118.777C389.252 159.279 356.419 192.111 315.919 192.111C275.417 192.111 242.585 159.279 242.585 118.777C242.585 78.2774 275.417 45.4441 315.919 45.4441C356.419 45.4441 389.252 78.2774 389.252 118.777Z" fill="#F4F4F4"/>
<path d="M249.696 110.777C249.696 151.279 216.863 184.111 176.363 184.111C135.863 184.111 103.029 151.279 103.029 110.777C103.029 70.2774 135.863 37.4441 176.363 37.4441C216.863 37.4441 249.696 70.2774 249.696 110.777Z" fill="#F4F4F4"/>
<path d="M215.919 189.889C215.919 230.389 183.085 263.223 142.585 263.223C102.084 263.223 69.252 230.389 69.252 189.889C69.252 149.388 102.084 116.556 142.585 116.556C183.085 116.556 215.919 149.388 215.919 189.889Z" fill="#F4F4F4"/>
<path d="M89.6853 286.343C89.6853 296.473 81.4733 304.685 71.3427 304.685C61.212 304.685 53 296.473 53 286.343C53 276.212 61.212 268 71.3427 268C81.4733 268 89.6853 276.212 89.6853 286.343Z" fill="#F14A59"/>
<path d="M71.4575 286.745V290.548C72.5829 290.36 73.2188 289.575 73.2188 288.6C73.2188 287.531 72.4695 287.063 71.4575 286.745ZM70.2402 284.571V280.785C69.2095 280.917 68.4788 281.535 68.4788 282.679C68.4788 283.765 69.2282 284.252 70.2402 284.571ZM70.2402 292.309C67.9535 292.104 66.3042 290.848 66.3042 288.731H68.5909C68.6655 289.668 69.1909 290.36 70.2402 290.548V286.425C68.3655 285.957 66.3042 285.433 66.3042 282.791C66.3042 280.692 67.9162 279.249 70.2402 279.044V277.507H71.4575V279.025C73.6122 279.212 75.0735 280.392 75.2429 282.509H72.9562C72.8815 281.76 72.3575 281.067 71.4575 280.843V284.889C73.3322 285.339 75.3735 285.845 75.3735 288.487C75.3735 290.304 73.9869 292.067 71.4575 292.291V293.828H70.2402V292.309Z" fill="white"/>
<path d="M454.685 95.3427C454.685 105.473 446.473 113.685 436.341 113.685C426.212 113.685 418 105.473 418 95.3427C418 85.212 426.212 77 436.341 77C446.473 77 454.685 85.212 454.685 95.3427Z" fill="#F14A59"/>
<path d="M436.456 95.7453V99.5493C437.58 99.3613 438.217 98.5747 438.217 97.6C438.217 96.532 437.468 96.064 436.456 95.7453ZM435.237 93.572V89.7867C434.207 89.9187 433.476 90.536 433.476 91.6787C433.476 92.7653 434.225 93.2533 435.237 93.572ZM435.237 101.311C432.952 101.104 431.303 99.8493 431.303 97.7307H433.588C433.664 98.6693 434.188 99.3613 435.237 99.5493V95.4267C433.364 94.9587 431.303 94.4333 431.303 91.792C431.303 89.6933 432.915 88.2507 435.237 88.044V86.508H436.456V88.0253C438.611 88.2133 440.072 89.3934 440.241 91.5107H437.955C437.88 90.7614 437.355 90.068 436.456 89.8427V93.8907C438.329 94.34 440.372 94.8453 440.372 97.488C440.372 99.3053 438.985 101.067 436.456 101.292V102.828H435.237V101.311Z" fill="white"/>
<path d="M435.685 298.343C435.685 308.472 427.473 316.687 417.344 316.687C407.212 316.687 399 308.472 399 298.343C399 288.212 407.212 280 417.344 280C427.473 280 435.685 288.212 435.685 298.343Z" fill="#F14A59"/>
<path d="M417.027 306.6L409.124 299.559C406.888 297.567 406.689 294.137 408.683 291.901C410.676 289.665 414.104 289.467 416.34 291.46L417.301 292.316L418.504 291.324C420.816 289.419 424.233 289.748 426.139 292.06C428.044 294.371 427.715 297.789 425.404 299.693L417.027 306.6Z" fill="white"/>
<path d="M260.685 21.3427C260.685 31.4733 252.473 39.6853 242.343 39.6853C232.212 39.6853 224 31.4733 224 21.3427C224 11.212 232.212 2.99998 242.343 2.99998C252.473 2.99998 260.685 11.212 260.685 21.3427Z" fill="#F14A59"/>
<path d="M242.027 29.6001L234.124 22.5588C231.888 20.5668 231.689 17.1388 233.683 14.9014C235.676 12.6654 239.104 12.4681 241.34 14.4601L242.301 15.3161L243.504 14.3241C245.816 12.4188 249.233 12.7481 251.139 15.0588C253.044 17.3708 252.715 20.7894 250.404 22.6948L242.027 29.6001Z" fill="white"/>
<path d="M106.427 120.313C105.171 120.313 104.149 121.335 104.149 122.589C104.149 123.845 105.171 124.867 106.427 124.867C107.681 124.867 108.703 123.845 108.703 122.589C108.703 121.335 107.681 120.313 106.427 120.313ZM106.427 126.037C104.525 126.037 102.979 124.491 102.979 122.589C102.979 120.689 104.525 119.143 106.427 119.143C108.328 119.143 109.873 120.689 109.873 122.589C109.873 124.491 108.328 126.037 106.427 126.037Z" fill="#65D4B1"/>
<path d="M175.863 206.843C174.607 206.843 173.585 207.864 173.585 209.12C173.585 210.375 174.607 211.396 175.863 211.396C177.117 211.396 178.139 210.375 178.139 209.12C178.139 207.864 177.117 206.843 175.863 206.843ZM175.863 212.567C173.961 212.567 172.415 211.021 172.415 209.12C172.415 207.219 173.961 205.672 175.863 205.672C177.763 205.672 179.309 207.219 179.309 209.12C179.309 211.021 177.763 212.567 175.863 212.567Z" fill="#65D4B1"/>
<path d="M228.927 91.2161C227.672 91.2161 226.651 92.2374 226.651 93.4934C226.651 94.7481 227.672 95.7694 228.927 95.7694C230.183 95.7694 231.204 94.7481 231.204 93.4934C231.204 92.2374 230.183 91.2161 228.927 91.2161ZM228.927 96.9401C227.027 96.9401 225.48 95.3934 225.48 93.4934C225.48 91.5921 227.027 90.0454 228.927 90.0454C230.828 90.0454 232.375 91.5921 232.375 93.4934C232.375 95.3934 230.828 96.9401 228.927 96.9401Z" fill="#65D4B1"/>
<path d="M319.947 11.0423C316.688 11.0423 314.038 13.6924 314.038 16.9514C314.038 20.207 316.688 22.8571 319.947 22.8571C323.202 22.8571 325.852 20.207 325.852 16.9514C325.852 13.6924 323.202 11.0423 319.947 11.0423ZM319.947 25.8947C315.013 25.8947 311 21.8815 311 16.9514C311 12.0179 315.013 8.00465 319.947 8.00465C324.877 8.00465 328.89 12.0179 328.89 16.9514C328.89 21.8815 324.877 25.8947 319.947 25.8947Z" fill="#F9F9F9" fill-opacity="0.47"/>
<path d="M411.445 156.868C408.371 156.868 405.865 159.371 405.865 162.448C405.865 165.523 408.371 168.025 411.445 168.025C414.519 168.025 417.022 165.523 417.022 162.448C417.022 159.371 414.519 156.868 411.445 156.868ZM411.445 170.893C406.786 170.893 403 167.104 403 162.448C403 157.79 406.786 154 411.445 154C416.104 154 419.89 157.79 419.89 162.448C419.89 167.104 416.104 170.893 411.445 170.893Z" fill="#F9F9F9" fill-opacity="0.47"/>
<path d="M122.445 2.19026C120.099 2.19026 118.187 4.1001 118.187 6.44874C118.187 8.79488 120.099 10.7047 122.445 10.7047C124.791 10.7047 126.701 8.79488 126.701 6.44874C126.701 4.1001 124.791 2.19026 122.445 2.19026ZM122.445 12.8937C118.89 12.8937 116 10.0016 116 6.44874C116 2.89337 118.89 0.00117992 122.445 0.00117992C126 0.00117992 128.89 2.89337 128.89 6.44874C128.89 10.0016 126 12.8937 122.445 12.8937Z" fill="#F9F9F9" fill-opacity="0.47"/>
<path d="M165.252 44.7507C163.996 44.7507 162.975 45.772 162.975 47.0267C162.975 48.2814 163.996 49.3041 165.252 49.3041C166.507 49.3041 167.528 48.2814 167.528 47.0267C167.528 45.772 166.507 44.7507 165.252 44.7507ZM165.252 50.4734C163.351 50.4734 161.804 48.928 161.804 47.0267C161.804 45.1254 163.351 43.5801 165.252 43.5801C167.152 43.5801 168.699 45.1254 168.699 47.0267C168.699 48.928 167.152 50.4734 165.252 50.4734Z" fill="#65D4B1"/>
<path d="M321.447 362.547C317.641 362.547 314.547 365.642 314.547 369.447C314.547 373.249 317.641 376.343 321.447 376.343C325.248 376.343 328.343 373.249 328.343 369.447C328.343 365.642 325.248 362.547 321.447 362.547ZM321.447 379.89C315.686 379.89 311 375.208 311 369.447C311 363.686 315.686 359 321.447 359C327.208 359 331.89 363.686 331.89 369.447C331.89 375.208 327.208 379.89 321.447 379.89Z" fill="#F9F9F9" fill-opacity="0.47"/>
<path d="M381.447 213.835C380.192 213.835 379.169 214.856 379.169 216.111C379.169 217.367 380.192 218.388 381.447 218.388C382.701 218.388 383.724 217.367 383.724 216.111C383.724 214.856 382.701 213.835 381.447 213.835ZM381.447 219.559C379.545 219.559 378 218.012 378 216.111C378 214.211 379.545 212.664 381.447 212.664C383.348 212.664 384.893 214.211 384.893 216.111C384.893 218.012 383.348 219.559 381.447 219.559Z" fill="#65D4B1"/>
<path d="M10.445 202.552C6.64272 202.552 3.54363 205.647 3.54363 209.449C3.54363 213.255 6.64272 216.346 10.445 216.346C14.2472 216.346 17.3464 213.255 17.3464 209.449C17.3464 205.647 14.2472 202.552 10.445 202.552ZM10.445 219.898C4.68302 219.898 0 215.211 0 209.449C0 203.691 4.68302 199 10.445 199C16.2069 199 20.89 203.691 20.89 209.449C20.89 215.211 16.2069 219.898 10.445 219.898Z" fill="#F9F9F9" fill-opacity="0.47"/>
<path d="M185.12 92.8293C185.001 93.388 184.765 93.9613 184.411 94.604C182.299 98.3707 176.217 94.012 174.207 92.4573C170.913 89.9067 168.987 84.4334 169.983 83.116C170.963 81.7987 178.109 88.032 178.583 87.9307C179.072 87.812 175.88 84.4333 176.944 83.284C177.991 82.152 182.789 86.072 184.073 88.3693C185.001 90.0427 185.459 91.3427 185.12 92.8293Z" fill="#E8CDA7"/>
<path d="M196.665 113.744L195.685 113.648C196.463 105.756 196.357 95.1974 191.436 89.7134C189.245 87.2707 186.235 86.0134 182.487 85.9747H182.429C172.64 85.9747 167.395 110.777 167.343 111.028L166.379 110.829C166.597 109.772 171.843 84.9893 182.429 84.9893H182.497C186.532 85.0293 189.787 86.3973 192.169 89.0547C197.331 94.8067 197.463 105.656 196.665 113.744Z" fill="#040606"/>
<path d="M193.355 113.417L192.375 113.321C193.152 105.429 193.048 94.872 188.127 89.3867C185.935 86.944 182.924 85.6867 179.176 85.6494L179.119 85.6481C169.327 85.6481 164.085 110.451 164.032 110.701L163.068 110.503C163.287 109.445 168.533 84.664 179.119 84.664H179.187C183.221 84.704 186.476 86.072 188.86 88.728C194.02 94.4814 194.153 105.329 193.355 113.417Z" fill="#040606"/>
<path d="M199.092 112.993L195.715 172.34L150.168 169.829L150.256 169.343L161.468 110.273L199.092 112.993Z" fill="#65D4B1"/>
<path d="M195.715 172.34L193.116 174.797L144.911 171.528L150.216 169.339L150.256 169.343L150.168 169.829L195.715 172.34Z" fill="#5DC2A3"/>
<path d="M161.468 110.273L150.256 169.343L150.216 169.339L144.911 171.528L156.54 112.639L161.468 110.273Z" fill="#5EC5A4"/>
<path d="M173.745 111.52C173.633 110.571 171.101 88.232 180.165 85.3134C183.603 84.2067 186.755 84.4507 189.535 86.0347C195.497 89.432 198.641 98.4787 200.228 105.471L198.877 105.777C197.352 99.0574 194.373 90.3867 188.849 87.2387C186.419 85.8547 183.64 85.6494 180.589 86.632C172.599 89.2054 175.096 111.136 175.121 111.357L173.745 111.52Z" fill="#040606"/>
<path d="M170.905 112.165C170.793 111.216 168.26 88.8774 177.325 85.9574C180.761 84.8534 183.913 85.0934 186.695 86.6801C192.657 90.0774 195.801 99.1241 197.388 106.116L196.036 106.423C194.511 99.7027 191.532 91.0307 186.009 87.8841C183.579 86.4974 180.8 86.2948 177.749 87.2774C169.763 89.8494 172.255 111.781 172.281 112.003L170.905 112.165Z" fill="#040606"/>
<path d="M201.781 104.233L215.401 154.472L176.863 164.975L176.805 164.563L169.772 112.387L201.781 104.233Z" fill="#F14A59"/>
<path d="M215.401 154.472L213.921 157.232L172.969 167.86L176.755 164.575L176.772 164.571L176.805 164.563L176.863 164.975L215.401 154.472Z" fill="#EF3342"/>
<path d="M169.772 112.387L176.805 164.563L176.772 164.571L176.755 164.575L172.969 167.86L166.333 115.716L169.772 112.387Z" fill="#F03A4D"/>
<path d="M212.829 133.652C213.568 131.787 213.187 129.671 212.068 128.005C206.543 119.783 186.299 90.1507 182.031 90.944C177.076 91.864 204.305 135.932 206.98 135.993C209.061 136.04 211.64 136.653 212.829 133.652Z" fill="#E8CDA7"/>
<path d="M185.12 92.8293C183.752 91.8493 179.849 88.8933 178.583 87.9307C179.072 87.812 175.88 84.4333 176.944 83.284C177.991 82.152 182.789 86.072 184.073 88.3694C185.001 90.0427 185.459 91.3427 185.12 92.8293Z" fill="#E8CDA7"/>
<path d="M260.06 141.669C259.649 139.235 257.667 137.377 255.285 136.719C244.596 133.765 208.604 124.456 205.84 132.181C202.589 141.263 235.015 147.621 244.639 148.273C252.659 148.817 261.055 147.556 260.06 141.669Z" fill="#E8CDA7"/>
<path d="M252.873 220.492C259.011 218.867 265.66 223.325 267.355 230.128C268.703 235.539 269.76 242.887 269.539 252.343C268.985 275.949 274.387 303.883 266.607 308.372C258.827 312.861 251.253 298.227 247.651 275.205C244.395 254.399 237.419 228.712 242.453 224.255C245.003 221.999 247.504 221.913 252.873 220.492Z" fill="#E8CDA7"/>
<path d="M271.283 217.657C276.728 214.393 284.353 216.833 287.868 222.899C290.664 227.724 293.719 234.489 296.128 243.636C302.144 266.471 315.081 291.809 308.852 298.28C302.621 304.751 291.288 292.792 281.441 271.673C272.541 252.585 258.715 229.841 262.315 224.164C264.139 221.288 266.519 220.513 271.283 217.657Z" fill="#E8CDA7"/>
<path d="M261.916 302.421C273.464 292.315 278.624 354.276 276.925 371.305C275.225 388.336 270.199 374.917 265.181 348.459C260.163 322.001 257.372 306.399 261.916 302.421Z" fill="#E8CDA7"/>
<path d="M277.027 353.837L277.585 376.511H271.331L266.304 351.827" fill="#E8CDA7"/>
<path d="M300.079 295.924C294.624 281.58 354.504 298.316 369.877 305.84C385.251 313.361 370.92 313.401 344.371 308.893C317.821 304.385 302.224 301.569 300.079 295.924Z" fill="#E8CDA7"/>
<path d="M367.163 304.619L374.348 307.411L372.524 312.473L364.78 311.581L367.163 304.619Z" fill="#E8CDA7"/>
<path d="M287.553 157.513C289.784 156.453 292.444 157.015 294.346 158.588C302.893 165.657 331.148 189.817 326.401 196.511C320.821 204.379 297.029 181.448 290.98 173.936C285.938 167.675 282.16 160.072 287.553 157.513Z" fill="#E8CDA7"/>
<path d="M374.509 177.987C373.896 178.28 372.963 178.707 371.883 179.107C368.949 180.2 365.016 181.013 364.083 178C363.283 175.413 363.949 173.933 365.696 171.96C367.429 169.973 372.923 167.12 373.709 168.453C374.509 169.8 370.709 172.44 371.149 172.653C371.229 172.693 371.603 172.56 372.149 172.307C374.469 171.307 380.003 168.507 380.563 169.72C381.256 171.213 378.256 176.173 374.509 177.987Z" fill="#E8CDA7"/>
<path d="M321.557 196.428C323.207 197.573 325.352 197.684 327.229 196.973C336.495 193.468 369.96 180.508 370.16 176.171C370.392 171.136 321.28 187.609 320.612 190.2C320.091 192.217 318.907 194.587 321.557 196.428Z" fill="#E8CDA7"/>
<path d="M241.173 220.476C241.173 220.476 235.515 228.816 247.131 279.152C258.747 329.488 269.617 371.783 269.617 371.783H279.447C279.447 371.783 279.595 343.339 277.585 328.817C275.575 314.299 273.34 311.32 272.893 306.703C272.447 302.087 272.745 260.536 272.745 260.536C272.745 260.536 288.68 294.491 300.743 301.193C312.805 307.895 366.716 313.553 366.716 313.553L368.204 302.533C368.204 302.533 350.78 295.385 340.653 293.003C330.528 290.62 315.188 288.832 313.401 287.64C311.613 286.449 309.083 240.805 283.84 215.785" fill="#10182A"/>
<path d="M306.741 168.204L295.339 180.16L284.509 169.652C284.509 169.652 276.807 188.309 277.255 199.139C277.701 209.977 284.956 214.776 284.956 214.776C265.853 228.296 239.725 220.753 239.725 220.753C239.725 220.753 240.619 197.468 241.396 187.076C242.173 176.693 235.365 174.352 235.588 167.981C235.812 161.611 244.748 150.557 244.748 150.557L230.343 147.547L234.919 130.899C234.919 130.899 251.163 133.329 263.225 136.395C262.493 137.611 258.713 144.464 264.352 147.76C270.32 151.263 278.559 143.167 279.167 142.551C287.432 147.153 296.349 154.525 306.741 168.204Z" fill="#65D4B1"/>
<path d="M275.051 140.457C274.061 139.996 273.081 139.567 272.108 139.165C273.081 139.567 274.061 139.996 275.051 140.457C276.039 140.92 277.035 141.416 278.04 141.952C278.157 141.041 278.952 134.92 280.712 129.559L269.873 124.421C267.988 130.953 264.592 136.1 264.217 136.653C264.903 136.833 265.567 137.015 266.216 137.197C265.567 137.015 264.903 136.833 264.217 136.653L264.181 136.707L264.217 136.653C263.896 136.573 263.565 136.484 263.225 136.395C262.493 137.611 258.713 144.463 264.352 147.76C270.32 151.263 278.559 143.167 279.167 142.551C278.791 142.345 278.416 142.14 278.04 141.952C277.035 141.416 276.039 140.92 275.051 140.457Z" fill="#E0BB8B"/>
<path d="M268.059 102.7C268.096 103.084 259.469 127.948 270.548 132.375C281.625 136.801 288.487 131.637 291.947 127.563C291.947 127.563 298.701 127.871 301.391 123.495C304.079 119.117 299.589 119.916 298.341 119.128C297.095 118.341 300.257 98.42 300.257 98.42L278.312 94.1134L268.059 102.7Z" fill="#E8CDA7"/>
<path d="M266.051 111.105C266.251 110.777 263.708 104.321 265.487 98.7348C268.5 89.2721 288.916 81.0694 302.576 93.3334C316.237 105.6 301.233 123.645 301.233 123.645C301.233 123.645 302.947 120.46 301.349 120.341C299.753 120.224 294.469 124.273 294.469 124.273L296.967 118.041C296.967 118.041 290.229 108.975 292.261 100.7C292.261 100.7 279.336 104.757 268.735 103.064L266.051 111.105Z" fill="#12141A"/>
<path d="M299.183 91.2614L304.019 87.7961C304.019 87.7961 304.517 77.5027 312.38 73.7361C320.241 69.9694 328.872 72.6227 328.872 72.6227L322.919 75.3321C322.919 75.3321 343.791 73.6454 346.424 91.4894C349.057 109.332 330.815 115.869 329.845 125.139C328.876 134.407 340.233 128.115 340.233 128.115C340.233 128.115 333.481 139.715 325.459 136.949C317.436 134.185 315.573 130.343 315.573 130.343C315.573 130.343 314.339 131.453 315.704 135.015C315.704 135.015 308.641 131.515 310.687 119.933C312.731 108.351 319.471 103.223 317.635 97.3654C315.799 91.5094 307.884 91.892 304.003 95.9947" fill="#12141A"/>
<path d="M303.809 87.6227L308.939 93.5507L305.108 95.5414L299.571 90.476L303.809 87.6227Z" fill="#F14A59"/>
<path d="M271.264 375.159C271.264 375.159 269.187 377.907 264.607 381.521C260.028 385.136 258.797 384.393 258.715 385.711C258.632 387.028 278.003 385.545 278.003 385.545L277.519 374.729C277.519 374.729 271.263 374.877 271.264 375.159Z" fill="#10182A"/>
<path d="M369.855 312.22C369.855 312.22 372.013 314.903 374.408 320.223C376.804 325.543 375.784 326.556 377.043 326.956C378.301 327.357 381.565 308.205 381.565 308.205L370.955 306.049C370.955 306.049 369.58 312.153 369.855 312.22Z" fill="#10182A"/>
<path d="M361.105 199.383C360.307 191.295 360.44 180.445 365.6 174.695C367.983 172.037 371.237 170.669 375.272 170.629H375.34C385.927 170.629 391.173 195.411 391.392 196.468L390.427 196.667C390.375 196.417 385.129 171.613 375.34 171.613L375.283 171.615C371.535 171.652 368.524 172.909 366.333 175.352C361.412 180.836 361.307 191.395 362.085 199.287L361.105 199.383Z" fill="#040606"/>
<path d="M364.415 199.056C363.617 190.969 363.749 180.12 368.909 174.368C371.293 171.711 374.548 170.343 378.583 170.303H378.651C389.239 170.303 394.483 195.084 394.701 196.141L393.737 196.341C393.685 196.091 388.439 171.287 378.651 171.287L378.593 171.288C374.845 171.325 371.835 172.584 369.643 175.027C364.723 180.511 364.617 191.069 365.395 198.96L364.415 199.056Z" fill="#040606"/>
<path d="M358.679 198.632L362.055 257.979L407.601 255.468L407.515 254.981L396.301 195.912L358.679 198.632Z" fill="#10182A"/>
<path d="M362.055 257.979L364.655 260.436L412.86 257.168L407.553 254.977L407.515 254.981L407.601 255.468L362.055 257.979Z" fill="#070C10"/>
<path d="M396.301 195.912L407.515 254.981L407.553 254.977L412.86 257.168L401.229 198.279L396.301 195.912Z" fill="#0B121E"/>
<path d="M384.025 197.159L382.648 196.996C382.675 196.775 385.167 174.843 377.18 172.271C374.129 171.288 371.351 171.493 368.92 172.877C363.396 176.025 360.419 184.696 358.892 191.417L357.541 191.109C359.128 184.119 362.272 175.072 368.233 171.673C371.016 170.088 374.169 169.848 377.605 170.952C386.668 173.871 384.137 196.209 384.025 197.159Z" fill="#040606"/>
<path d="M386.865 197.804L385.489 197.641C385.515 197.42 388.007 175.488 380.021 172.916C376.968 171.933 374.189 172.137 371.76 173.523C366.236 176.671 363.259 185.341 361.733 192.061L360.381 191.755C361.969 184.764 365.113 175.717 371.075 172.319C373.856 170.733 377.009 170.492 380.445 171.597C389.509 174.516 386.977 196.855 386.865 197.804Z" fill="#040606"/>
<path d="M355.988 189.872L342.368 240.111L380.907 250.613L380.964 250.201L387.997 198.025L355.988 189.872Z" fill="#F14A59"/>
<path d="M342.368 240.111L343.848 242.871L384.801 253.497L381.015 250.213L380.999 250.209L380.964 250.201L380.907 250.613L342.368 240.111Z" fill="#EF3342"/>
<path d="M387.997 198.025L380.964 250.201L380.999 250.209L381.015 250.213L384.801 253.497L391.436 201.355L387.997 198.025Z" fill="#F03A4D"/>
<path d="M374.509 177.987C373.976 178.24 373.203 178.6 372.296 178.947C372.363 177.653 372.576 175.493 373.363 173.827C373.949 172.573 375.136 171.4 376.216 170.52C378.269 169.653 380.243 169.027 380.563 169.72C381.256 171.213 378.256 176.173 374.509 177.987Z" fill="#E8CDA7"/>
<path d="M374.509 177.987C373.976 178.24 373.203 178.6 372.296 178.947C372.363 177.653 369.937 176.5 370.724 174.833C371.311 173.58 373.508 171.949 376.096 170.616C378.213 169.471 380.243 169.027 380.563 169.72C381.256 171.213 378.256 176.173 374.509 177.987Z" fill="#E8CDA7"/>
<path d="M278.62 123.667C278.52 124.06 278.147 125.344 277.339 126.332L277.333 126.351C276.516 126.708 275.619 126.859 274.656 126.564C274.471 126.508 274.292 126.433 274.136 126.345C273.427 125.156 273.764 122.728 273.861 122.212L278.62 123.667Z" fill="#F14A59"/>
<path d="M278.62 123.667L280.083 124.113C279.411 124.92 278.441 125.839 277.339 126.332C278.147 125.344 278.52 124.06 278.62 123.667Z" fill="#12141A"/>
<path d="M273.861 122.212C273.764 122.728 273.427 125.156 274.136 126.345C272.32 125.465 271.988 123.239 271.991 121.639L273.861 122.212Z" fill="#12141A"/>
<path d="M272.155 119.847L281.207 122.555C281.207 122.555 280.784 123.275 280.083 124.113L278.62 123.667L273.861 122.212L271.991 121.639C272.001 120.611 272.155 119.847 272.155 119.847Z" fill="white"/>
<path d="M275.497 113.285L275.329 113.099C275.083 111.777 274.572 110.943 273.813 110.617C272.581 110.087 271.057 111.057 271.044 111.064L270.709 110.993L270.78 110.66C270.852 110.613 272.545 109.54 274.004 110.172C274.92 110.565 275.527 111.521 275.805 113.011C275.831 113.14 275.744 113.268 275.613 113.292L275.497 113.285Z" fill="#12141A"/>
<path d="M290.085 118.94L289.919 118.752C289.676 117.444 289.172 116.616 288.421 116.295C287.193 115.764 285.663 116.733 285.647 116.745L285.312 116.673L285.384 116.34C285.451 116.296 286.968 115.332 288.372 115.761L288.613 115.851C289.521 116.241 290.121 117.188 290.395 118.665C290.419 118.797 290.333 118.923 290.2 118.948L290.085 118.94Z" fill="#12141A"/>
<path d="M71.6853 98.3427C71.6853 108.473 63.4734 116.685 53.3427 116.685C43.212 116.685 35 108.473 35 98.3427C35 88.212 43.212 80 53.3427 80C63.4734 80 71.6853 88.212 71.6853 98.3427Z" fill="#F14A59"/>
<path d="M60.3225 106.171L49.4366 101.965L48.6017 88.4103L42.9634 86.2331C42.5992 86.0922 42.1891 86.2732 42.0483 86.6374C41.9063 87.0016 42.0884 87.4116 42.4526 87.5536L47.2445 89.4044L48.0783 102.958L59.8117 107.492C60.1771 107.633 60.5871 107.452 60.7269 107.088C60.8677 106.721 60.6867 106.312 60.3225 106.171ZM57.2875 107.782C56.2499 107.38 55.0828 107.897 54.682 108.935C54.2811 109.973 54.7965 111.14 55.8353 111.539C56.873 111.941 58.0389 111.425 58.4409 110.386C58.8417 109.348 58.3252 108.183 57.2875 107.782ZM50.0745 104.994C49.0368 104.593 47.8709 105.11 47.4689 106.147C47.0681 107.185 47.5847 108.352 48.6223 108.754C49.6599 109.154 50.827 108.637 51.2278 107.6C51.6298 106.562 51.1133 105.395 50.0745 104.994ZM60.4084 104.843L66.38 98.4522L50.6345 92.3672L50.7571 101.114L60.4084 104.843" fill="white"/>
<path d="M166.728 457.062L83.1286 341.121L212.972 348.849L166.728 457.062Z" stroke="#F9F9F9" stroke-opacity="0.48" stroke-width="6"/>
</svg>
